<svg xmlns="http://www.w3.org/2000/svg" xmlns:xlink="http://www.w3.org/1999/xlink" version="1.1" id="Layer_1" x="0px" y="0px" viewBox="0 0 297.3 150.2" xml:space="preserve" enable-background="new 0 0 297.3 150.2">
  <g id="XMLID_3_">
    <path id="XMLID_4_" d="M126.8 149.4h-21V64.3c0-23.1-18.2-42.4-40.7-42.4 -23.2 0-42.6 14.5-43.1 47.7v79.8H1V29.4C1 20.8 1 6.6 22 6.6l0 0v17.9C31 5.4 51.7 1.1 65.1 1.1 81.2 1.1 94.2 5 103.7 14c6.7 6.4 17.3 7.8 24.1 1.4C141.4 2.6 158.5 1 169.5 1c35.7 0 62.4 23.5 62.1 63.3v85.1h-21V64.3c0.2-24-18.6-42.5-41.1-42.5 -23.1 0-43.2 18.4-42.7 42.6V149.4z" fill="#ffffff"/>
  </g>
  <path id="XMLID_2_" d="M264.9 7.2L264.9 7.2l-22.2 3.3c-2.9 0.4-4.7 3.3-3.9 6.1 0 0 3.3 12.6 6.5 21.4s0 0 0 0c3.5 15.6 20.5 24.7 36 17.6 9-4.1 15-13.5 14.8-23.4C295.9 15.3 280.5 3.8 264.9 7.2z" fill="#ffffff"/>
</svg>